<svg width="20" height="19" viewBox="0 0 20 19" fill="none" xmlns="http://www.w3.org/2000/svg">
<path d="M3.4495 16.2318H6.06991V18.8522H3.4495V16.2318Z" fill="#8E6AD1"/>
<path d="M3.4495 13.6114H6.06991V16.2318H3.4495V13.6114Z" fill="#8E6AD1"/>
<path d="M3.4495 10.991H6.06991V13.6114H3.4495V10.991Z" fill="#8E6AD1"/>
<path d="M6.06991 16.2318H8.69031V18.8522H6.06991V16.2318Z" fill="#8E6AD1"/>
<path d="M8.69031 16.2318H11.3107V18.8522H8.69031V16.2318Z" fill="#8E6AD1"/>
<path d="M11.3107 16.2318H13.9311V18.8522H11.3107V16.2318Z" fill="#8E6AD1"/>
<path d="M13.9311 16.2318H16.5516V18.8522H13.9311V16.2318Z" fill="#BB97F2"/>
<path d="M13.9312 13.6114H16.5516V16.2318H13.9311L13.9312 13.6114Z" fill="#BB97F2"/>
<path d="M13.9312 10.991H16.5516V13.6114H13.9312V10.991Z" fill="#BB97F2"/>
<path d="M0.829102 8.37064H3.4495V10.991H0.829102V8.37064Z" fill="#8E6AD1"/>
<path d="M3.4495 5.75014H6.06991V8.37055L3.4495 8.37064V5.75014Z" fill="#BB97F2"/>
<path d="M6.06991 3.12974H8.69031V5.75014H6.06991V3.12974Z" fill="#BB97F2"/>
<path d="M8.69031 0.509338H11.3107V3.12974H8.69031V0.509338Z" fill="#BB97F2"/>
<path d="M11.3107 3.12974H13.9311V5.75014H11.3107V3.12974Z" fill="#BB97F2"/>
<path d="M13.9311 5.75014H16.5515V8.37055H13.9311V5.75014Z" fill="#BB97F2"/>
<path d="M16.5515 8.37055L19.172 8.37064V10.991H16.5516L16.5515 8.37055Z" fill="#BB97F2"/>
<path d="M3.4495 8.37064L16.5515 8.37055L16.5516 10.991H3.4495V8.37064Z" fill="#2B2B2B"/>
<path d="M6.06991 5.75014H13.9311V8.37055H6.06991V5.75014Z" fill="#2B2B2B"/>
<path d="M6.06991 10.991H13.9312L13.9311 16.2318H6.06991V10.991Z" fill="#2B2B2B"/>
<path d="M8.69031 3.12974H11.3107V5.75014H8.69031V3.12974Z" fill="#2B2B2B"/>
</svg>
