<svg width="16" height="20" viewBox="0 0 16 20" fill="none" xmlns="http://www.w3.org/2000/svg">
<path d="M0.616943 0.00228882H2.8107V2.19604H0.616943V0.00228882Z" fill="#BB97F2"/>
<path d="M0.616943 17.5522H2.8107V19.746H0.616943V17.5522Z" fill="#BB97F2"/>
<path d="M0.616943 17.5522L0.616943 15.3586H2.8107L2.8107 17.5522H0.616943Z" fill="#BB97F2"/>
<path d="M13.7795 17.5523V15.3586H15.9732V17.5523H13.7795Z" fill="#8E6AD1"/>
<path d="M2.8107 0.00228882H5.00445V2.19604H2.8107V0.00228882Z" fill="#BB97F2"/>
<path d="M2.8107 17.5522H5.00445V19.746H2.8107V17.5522Z" fill="#8E6AD1"/>
<path d="M0.616943 15.3586V13.1648H2.8107V15.3586H0.616943Z" fill="#BB97F2"/>
<path d="M13.7795 15.3586V13.1648H15.9732V15.3586H13.7795Z" fill="#8E6AD1"/>
<path d="M5.00445 0.00228882H7.19821V2.19604H5.00445V0.00228882Z" fill="#BB97F2"/>
<path d="M5.00445 17.5522H7.19821V19.746H5.00445V17.5522Z" fill="#8E6AD1"/>
<path d="M5.00445 4.3898H7.1982V6.58355H5.00445V4.3898Z" fill="#BB97F2"/>
<path d="M5.00445 8.77738H7.1982V10.9711H5.00445V8.77738Z" fill="#BB97F2"/>
<path d="M5.00445 13.1648H7.1982V15.3586H5.00445V13.1648Z" fill="#BB97F2"/>
<path d="M0.616943 13.1648V10.9711H2.8107V13.1648H0.616943Z" fill="#BB97F2"/>
<path d="M13.7795 13.1648V10.9711H15.9732V13.1648H13.7795Z" fill="#8E6AD1"/>
<path d="M7.19821 0.00228882H9.39196V2.19604H7.19821V0.00228882Z" fill="#BB97F2"/>
<path d="M7.19821 17.5522H9.39196V19.746H7.19821V17.5522Z" fill="#8E6AD1"/>
<path d="M7.1982 4.3898H9.39196V6.58355H7.1982V4.3898Z" fill="#BB97F2"/>
<path d="M7.1982 8.77738H9.39196V10.9711H7.1982V8.77738Z" fill="#BB97F2"/>
<path d="M7.1982 13.1648H9.39196V15.3586H7.1982V13.1648Z" fill="#BB97F2"/>
<path d="M0.616943 10.9711V8.77731H2.8107V10.9711H0.616943Z" fill="#BB97F2"/>
<path d="M13.7795 10.9711V8.77731H15.9732V10.9711H13.7795Z" fill="#8E6AD1"/>
<path d="M9.39196 0.00228882H11.5857V2.19604H9.39196V0.00228882Z" fill="#BB97F2"/>
<path d="M9.39196 17.5522H11.5857V19.746H9.39196V17.5522Z" fill="#8E6AD1"/>
<path d="M9.39196 4.3898H11.5857V6.58355H9.39196V4.3898Z" fill="#BB97F2"/>
<path d="M9.39196 8.77738H11.5857V10.9711H9.39196V8.77738Z" fill="#BB97F2"/>
<path d="M9.39196 13.1648H11.5857V15.3586H9.39196V13.1648Z" fill="#BB97F2"/>
<path d="M0.616943 8.77731V6.58355H2.8107V8.77731H0.616943Z" fill="#BB97F2"/>
<path d="M13.7795 8.77731V6.58355H15.9732V8.77731H13.7795Z" fill="#8E6AD1"/>
<path d="M11.5857 0.00228882H13.7795V2.19604H11.5857V0.00228882Z" fill="#BB97F2"/>
<path d="M11.5857 17.5522L13.7795 17.5523V19.746H11.5857V17.5522Z" fill="#8E6AD1"/>
<path d="M0.616943 6.58355V4.3898H2.8107V6.58355H0.616943Z" fill="#BB97F2"/>
<path d="M13.7795 6.58355V4.3898H15.9732V6.58355H13.7795Z" fill="#8E6AD1"/>
<path d="M13.7795 0.00228882H15.9732V2.19604H13.7795V0.00228882Z" fill="#8E6AD1"/>
<path d="M13.7795 17.5523H15.9732V19.746H13.7795V17.5523Z" fill="#8E6AD1"/>
<path d="M0.616943 4.3898L0.616943 2.19604H2.8107L2.8107 4.3898H0.616943Z" fill="#BB97F2"/>
<path d="M13.7795 4.3898V2.19604H15.9732V4.3898H13.7795Z" fill="#8E6AD1"/>
</svg>
