<svg width="15" height="19" viewBox="0 0 15 19" fill="none" xmlns="http://www.w3.org/2000/svg">
<path d="M1.63833 3.61434H2.9987V4.97471H1.63833V3.61434Z" fill="#BB97F2"/>
<path d="M12.5212 15.8576H11.1609V14.4973H12.5212V15.8576Z" fill="#BB97F2"/>
<path d="M2.99867 2.25398H4.35903V3.61434L2.9987 3.61434L2.99867 2.25398Z" fill="#BB97F2"/>
<path d="M11.1608 17.218H9.80048V15.8576L11.1609 15.8576L11.1608 17.218Z" fill="#BB97F2"/>
<path d="M4.35906 0.893616H5.71942V2.25398L4.35903 2.25398L4.35906 0.893616Z" fill="#BB97F2"/>
<path d="M9.80048 18.5784H8.44012V17.218H9.80048L9.80048 18.5784Z" fill="#BB97F2"/>
<path d="M5.71942 0.893616H7.07979V2.25398H5.71942V0.893616Z" fill="#BB97F2"/>
<path d="M8.44012 18.5784H7.07975V17.218H8.44012V18.5784Z" fill="#BB97F2"/>
<path d="M7.07979 0.893616H8.44012V2.25398H7.07979V0.893616Z" fill="#BB97F2"/>
<path d="M7.07975 18.5784H5.71939V17.218H7.07975V18.5784Z" fill="#BB97F2"/>
<path d="M8.44012 2.25398L9.80051 2.25398V3.61434H8.44015L8.44012 2.25398Z" fill="#BB97F2"/>
<path d="M5.71939 17.218H4.35903V15.8576H5.71939L5.71939 17.218Z" fill="#BB97F2"/>
<path d="M9.80051 3.61434L11.1609 3.61434V4.97471H9.80051L9.80051 3.61434Z" fill="#BB97F2"/>
<path d="M4.35903 15.8576L2.99867 15.8576V14.4973H4.35903L4.35903 15.8576Z" fill="#BB97F2"/>
<path d="M9.80051 4.97471H11.1609V6.33507H9.80051V4.97471Z" fill="#BB97F2"/>
<path d="M4.35903 14.4973H2.99867V13.1369H4.35903V14.4973Z" fill="#BB97F2"/>
<path d="M9.80051 6.33507H11.1609V7.69546H9.80051V6.33507Z" fill="#BB97F2"/>
<path d="M4.35903 13.1369H2.99867V11.7765H4.35903V13.1369Z" fill="#BB97F2"/>
<path d="M8.44015 7.69545L9.80051 7.69546L9.80051 9.05582H8.44015V7.69545Z" fill="#BB97F2"/>
<path d="M0.72644 6.79577H14.1616V8.15613H0.72644V6.79577Z" fill="#BB97F2"/>
<path d="M0.72644 11.3375H14.1616V12.6979H0.72644V11.3375Z" fill="#BB97F2"/>
<path d="M7.07978 9.05582L8.44015 9.05582L8.44015 10.4162H7.07978V9.05582Z" fill="#BB97F2"/>
<path d="M5.71942 9.05582H7.07978V10.4162H5.71942V9.05582Z" fill="#BB97F2"/>
<path d="M4.35906 10.4162L5.71942 10.4162L5.71942 11.7765L4.35903 11.7765L4.35906 10.4162Z" fill="#BB97F2"/>
</svg>
